<svg xmlns="http://www.w3.org/2000/svg" viewBox="0 0 64 64" id="Law"><path fill="#5ae58b" d="M46 54h-28c-2.21 0-4 1.79-4 4v2h36v-2c0-2.21-1.79-4-4-4zM38.49 47h-12.98c-.89 0-1.68.59-1.92 1.45l-1.59 5.55h20l-1.59-5.55c-.25-.86-1.03-1.45-1.92-1.45z" class="color29b6f6 svgShape"></path><path fill="#ffed66" d="m50,11h-15v-4c0-1.66-1.34-3-3-3s-3,1.34-3,3v4h-15c-1.66,0-3,1.34-3,3s1.34,3,3,3h15v30h6v-30h15c1.66,0,3-1.34,3-3s-1.34-3-3-3Z" class="colorcfd8dc svgShape"></path><path fill="#5ae58b" d="M14 41h0c-5.52 0-10-4.48-10-10v-1c0-.55.45-1 1-1h18c.55 0 1 .45 1 1v1c0 5.52-4.48 10-10 10zM50 41h0c5.52 0 10-4.48 10-10v-1c0-.55-.45-1-1-1h-18c-.55 0-1 .45-1 1v1c0 5.52 4.48 10 10 10z" class="color29b6f6 svgShape"></path><path d="m41,28c-1.1,0-2,.9-2,2v1c0,6.07,4.93,11,11,11s11-4.93,11-11v-1c0-1.1-.9-2-2-2h-.46l-6.9-10.36c1.39-.63,2.37-2.02,2.37-3.64,0-2.21-1.79-4-4-4h-14v-3c0-2.21-1.79-4-4-4s-4,1.79-4,4v3h-14c-2.21,0-4,1.79-4,4,0,1.62.98,3.02,2.37,3.64l-6.9,10.36h-.46c-1.1,0-2,.9-2,2v1c0,6.07,4.93,11,11,11s11-4.93,11-11v-1c0-1.1-.9-2-2-2h-.46l-6.67-10h12.13v28h-2.49c-1.33,0-2.52.89-2.88,2.18l-1.38,4.82h-3.25c-2.76,0-5,2.24-5,5v1H4c-.55,0-1,.45-1,1s.45,1,1,1h56c.55,0,1-.45,1-1s-.45-1-1-1h-9v-1c0-2.76-2.24-5-5-5h-3.25l-1.38-4.82c-.37-1.28-1.55-2.18-2.88-2.18h-2.49v-28h12.13l-6.67,10h-.46Zm18,3c0,4.96-4.04,9-9,9s-9-4.04-9-9v-1h18v1ZM30,7c0-1.1.9-2,2-2s2,.9,2,2v3h-4v-3Zm-16,5h36c1.1,0,2,.9,2,2s-.9,2-2,2H14c-1.1,0-2-.9-2-2s.9-2,2-2Zm9,19c0,4.96-4.04,9-9,9s-9-4.04-9-9v-1h18v1Zm-15.13-3l6.13-9.2,6.13,9.2H7.87Zm41.13,30v1H15v-1c0-1.65,1.35-3,3-3h28c1.65,0,3,1.35,3,3Zm-9.55-9.28l1.22,4.28h-17.35l1.22-4.28c.12-.43.52-.72.96-.72h12.98c.44,0,.84.3.96.72Zm-5.45-2.72h-4v-28h4v28Zm16-27.2l6.13,9.2h-12.26l6.13-9.2Z" fill="#000000" class="color000000 svgShape"></path></svg>