<svg xmlns="http://www.w3.org/2000/svg" viewBox="0 0 512 512" id="woman-judgement"><g><path d="M340.541,252.333a97.722,97.722,0,0,1-13.771.965,98.868,98.868,0,0,1-16.927-1.447A62.892,62.892,0,0,0,308,266.377v7.578a141.813,141.813,0,0,0,35.69,1.954c28.569-2.364,49.5-14.367,61.834-35.678a6.972,6.972,0,0,1,12.81,1.81A54.377,54.377,0,0,0,434.2,266.37,63.013,63.013,0,0,0,402.883,212C383.791,240.541,358.7,249.738,340.541,252.333Z"></path><path d="M339.158 238.4c20.871-3.129 37.889-13.952 50.715-32.164a62.955 62.955 0 0 0-75.047 32.2A85.187 85.187 0 0 0 339.158 238.4zM473.6 230.765a24.41 24.41 0 0 0-18.784-3.733 26.642 26.642 0 0 0-13.656 7.258 76.3 76.3 0 0 1 5.459 16.553zM448 273.4a25.21 25.21 0 0 0 31.877-7.977 24.64 24.64 0 0 0 3.954-18.6 25.089 25.089 0 0 0-1.519-5.16L448 267.121zM486 446.13c0-22.491-18.93-40.13-41.42-40.13H412.092L379 426.11V482H486zM260 446.13V482H365V426.011L333.084 406H300.865C278.375 406 260 423.639 260 446.13zM403 385.355a75.124 75.124 0 0 1-61 1.257v7.941l29.689 19.368L403 394.454z"></path><path d="M434 314.14V283.587a68.513 68.513 0 0 1-24.123-25.362c-15.092 18.569-37.381 29.447-65.4 31.671-3.772.3-7.479.426-10.986.426A165.116 165.116 0 0 1 308 288.19v25.95a64.687 64.687 0 0 0 18.589 45.272 61.511 61.511 0 0 0 89.027 0A64.483 64.483 0 0 0 434 314.14zm-92.621 18.3a18.963 18.963 0 0 1-18.941-18.94 7 7 0 0 1 14 0 4.941 4.941 0 0 0 9.882 0 7 7 0 0 1 14 0A18.963 18.963 0 0 1 341.379 332.44zm59.7 0a18.963 18.963 0 0 1-18.941-18.94 7 7 0 0 1 14 0 4.94 4.94 0 1 0 9.88 0 7 7 0 0 1 14 0A18.961 18.961 0 0 1 401.082 332.44zM73.479 201.429c28 0 47.556-17.695 47.556-43.032a6.862 6.862 0 0 0-4.666-6.489L83.537 64h65.692A26.364 26.364 0 0 0 164 77.031V198h-7.852c-11.513 0-21.246 7-24.291 18h-.087a6.576 6.576 0 0 0-6.77 6.725v21.33A6.76 6.76 0 0 0 131.77 251h78.71c3.868 0 7.52-3.079 7.52-6.945v-21.33c0-3.867-3.652-6.725-7.52-6.725h-.087c-3.043-11-12.778-18-24.289-18H178V77.031A24.006 24.006 0 0 0 193.021 64h65.692l-32.83 87.908a6.928 6.928 0 0 0-4.666 6.541c0 25.337 19.437 43.006 47.267 43.006 28 0 47.557-17.721 47.557-43.058a7 7 0 0 0-4.33-6.47l-36.17-96.853A6.906 6.906 0 0 0 268.789 50H194.656a23.929 23.929 0 0 0-47.062 0H73.818c-.109 0-.218-.071-.328-.071s-.236-.038-.353-.033-.215 0-.321.012c-.121.012-.242.012-.361.03-.1.015-.2.034-.3.054-.125.024-.25.045-.373.076-.095.024-.189.054-.285.082-.129.038-.256.075-.381.12-.027.01-.052.015-.08.025-.072.027-.14.062-.211.091-.115.048-.228.094-.341.148s-.213.107-.319.163-.185.1-.275.155c-.112.066-.219.136-.324.208-.082.055-.163.11-.243.168-.1.077-.2.157-.3.239-.079.064-.155.128-.229.2-.092.083-.18.168-.266.254s-.152.154-.224.234-.151.172-.223.26-.144.179-.215.272-.127.18-.189.272-.129.194-.19.3-.115.2-.17.3-.1.194-.15.294c-.057.118-.107.239-.156.36-.027.067-.061.131-.086.2L30.543 151.926a7 7 0 0 0-4.332 6.471C26.211 183.734 45.648 201.429 73.479 201.429zM296.57 152H240.977l27.8-74.515zM186.1 212c3.576 0 6.763 1 8.832 4H147.314c2.069-3 5.256-4 8.834-4zM73.479 77.485L101.273 152H45.682z"></path></g></svg>